<svg width="186" height="289" viewBox="0 0 186 289" fill="none" xmlns="http://www.w3.org/2000/svg">
<path d="M141.364 0C165.689 0 185.401 19.9235 185.401 44.4988C185.401 69.0735 165.689 88.995 141.364 88.995C117.048 88.995 97.3303 69.0735 97.3303 44.4988C97.3296 19.9235 117.047 0 141.364 0Z" fill="#FAFAFA"/>
<path d="M46.0624 167.605C49.7355 167.605 52.9948 165.931 55.2325 163.337L129.354 94.3681C114.642 90.761 102.428 80.6722 95.8471 67.2709L37.2906 146.035C35.1324 149.081 33.8535 151.736 33.8535 155.262C33.8535 162.075 39.326 167.605 46.0624 167.605Z" fill="#FAFAFA"/>
<path d="M10.436 233.899C35.0678 253.025 72.9326 216.798 74.3472 215.415C74.7539 215.057 114.692 179.525 133.311 200.569C137.198 204.947 138.822 210.016 138.307 216.061C136.349 238.476 105.543 267.527 93.8337 276.828C90.9107 279.153 90.4031 283.438 92.7023 286.395C94.0316 288.107 96.001 289 98.004 289C99.4523 289 100.929 288.519 102.146 287.552C104.062 286.033 148.86 250.166 151.726 217.269C152.589 207.399 149.773 198.726 143.362 191.485C135.154 182.209 119.636 173.924 92.4171 187.128C77.5154 194.344 65.8619 204.814 65.1946 205.413C57.187 213.158 31.4425 233.023 18.6414 223.089C15.8548 220.926 14.4233 218.311 14.1227 214.86C13.1147 202.944 25.5802 185.79 31.7813 178.611L45.593 173.744C45.593 173.744 42.8271 173.432 36.3143 167.533C30.2244 162.004 28.6087 156.024 28.6087 156.024L22.3927 168.785C17.9658 173.773 -0.945939 196.351 0.699542 216.007C1.30278 223.241 4.66809 229.431 10.436 233.899Z" fill="#FAFAFA"/>
</svg>
